<svg width="30" height="22" viewBox="0 0 30 22" fill="none" xmlns="http://www.w3.org/2000/svg">
<path d="M5.02851 22C3.66021 22 2.49145 21.5073 1.52223 20.5219C0.553022 19.5365 0.04561 18.3448 0 16.9469C0 16.7406 0.0114025 16.5344 0.0342075 16.3281C0.0570125 16.1219 0.0912201 15.9156 0.13683 15.7094L3.01026 4.15938C3.32953 2.92188 3.97948 1.91927 4.96009 1.15156C5.94071 0.383854 7.05815 0 8.31243 0H21.6534C22.9076 0 24.0251 0.383854 25.0057 1.15156C25.9863 1.91927 26.6363 2.92188 26.9555 4.15938L29.829 15.7094C29.8746 15.9156 29.9145 16.1276 29.9487 16.3453C29.9829 16.563 30 16.775 30 16.9813C30 18.3792 29.504 19.5651 28.512 20.5391C27.52 21.513 26.3284 22 24.9373 22C23.9795 22 23.0901 21.7479 22.2691 21.2437C21.4481 20.7396 20.8324 20.0521 20.4219 19.1812L19.4641 17.1875C19.3501 16.9583 19.179 16.7865 18.951 16.6719C18.7229 16.5573 18.4835 16.5 18.2326 16.5H11.7332C11.4823 16.5 11.2429 16.5573 11.0148 16.6719C10.7868 16.7865 10.6157 16.9583 10.5017 17.1875L9.5439 19.1812C9.13341 20.0521 8.51767 20.7396 7.69669 21.2437C6.87571 21.7479 5.98632 22 5.02851 22ZM5.13113 19.25C5.56442 19.25 5.95781 19.1354 6.31129 18.9062C6.66477 18.6771 6.93273 18.3677 7.11517 17.9781L8.07298 16.0188C8.41505 15.3083 8.91676 14.7526 9.57811 14.3516C10.2395 13.9505 10.9578 13.75 11.7332 13.75H18.2326C19.008 13.75 19.7263 13.9563 20.3877 14.3688C21.049 14.7812 21.5621 15.3313 21.927 16.0188L22.8848 17.9781C23.0673 18.3677 23.3352 18.6771 23.6887 18.9062C24.0422 19.1354 24.4356 19.25 24.8689 19.25C25.5074 19.25 26.0547 19.038 26.5108 18.6141C26.9669 18.1901 27.2064 17.6573 27.2292 17.0156C27.2292 17.0385 27.2064 16.8208 27.1608 16.3625L24.2873 4.84688C24.1277 4.22813 23.8084 3.72396 23.3295 3.33438C22.8506 2.94479 22.2919 2.75 21.6534 2.75H8.31243C7.67389 2.75 7.10946 2.94479 6.61916 3.33438C6.12885 3.72396 5.81528 4.22813 5.67845 4.84688L2.80502 16.3625C2.75941 16.5 2.7366 16.7063 2.7366 16.9813C2.7366 17.6229 2.97035 18.1615 3.43786 18.5969C3.90536 19.0323 4.46978 19.25 5.13113 19.25ZM17.0353 9.625C17.423 9.625 17.748 9.49323 18.0103 9.22969C18.2725 8.96615 18.4036 8.63958 18.4036 8.25C18.4036 7.86042 18.2725 7.53385 18.0103 7.27031C17.748 7.00677 17.423 6.875 17.0353 6.875C16.6477 6.875 16.3227 7.00677 16.0604 7.27031C15.7982 7.53385 15.667 7.86042 15.667 8.25C15.667 8.63958 15.7982 8.96615 16.0604 9.22969C16.3227 9.49323 16.6477 9.625 17.0353 9.625ZM19.7719 6.875C20.1596 6.875 20.4846 6.74323 20.7469 6.47969C21.0091 6.21615 21.1403 5.88958 21.1403 5.5C21.1403 5.11042 21.0091 4.78385 20.7469 4.52031C20.4846 4.25677 20.1596 4.125 19.7719 4.125C19.3843 4.125 19.0593 4.25677 18.797 4.52031C18.5348 4.78385 18.4036 5.11042 18.4036 5.5C18.4036 5.88958 18.5348 6.21615 18.797 6.47969C19.0593 6.74323 19.3843 6.875 19.7719 6.875ZM19.7719 12.375C20.1596 12.375 20.4846 12.2432 20.7469 11.9797C21.0091 11.7161 21.1403 11.3896 21.1403 11C21.1403 10.6104 21.0091 10.2839 20.7469 10.0203C20.4846 9.75677 20.1596 9.625 19.7719 9.625C19.3843 9.625 19.0593 9.75677 18.797 10.0203C18.5348 10.2839 18.4036 10.6104 18.4036 11C18.4036 11.3896 18.5348 11.7161 18.797 11.9797C19.0593 12.2432 19.3843 12.375 19.7719 12.375ZM22.5086 9.625C22.8962 9.625 23.2212 9.49323 23.4835 9.22969C23.7457 8.96615 23.8769 8.63958 23.8769 8.25C23.8769 7.86042 23.7457 7.53385 23.4835 7.27031C23.2212 7.00677 22.8962 6.875 22.5086 6.875C22.1209 6.875 21.7959 7.00677 21.5336 7.27031C21.2714 7.53385 21.1403 7.86042 21.1403 8.25C21.1403 8.63958 21.2714 8.96615 21.5336 9.22969C21.7959 9.49323 22.1209 9.625 22.5086 9.625ZM10.1938 11.6875C10.4903 11.6875 10.7355 11.5901 10.9293 11.3953C11.1231 11.2005 11.2201 10.9542 11.2201 10.6562V9.28125H12.5884C12.8848 9.28125 13.13 9.18385 13.3238 8.98906C13.5177 8.79427 13.6146 8.54792 13.6146 8.25C13.6146 7.95208 13.5177 7.70573 13.3238 7.51094C13.13 7.31615 12.8848 7.21875 12.5884 7.21875H11.2201V5.84375C11.2201 5.54583 11.1231 5.29948 10.9293 5.10469C10.7355 4.9099 10.4903 4.8125 10.1938 4.8125C9.89738 4.8125 9.65222 4.9099 9.45838 5.10469C9.26454 5.29948 9.16762 5.54583 9.16762 5.84375V7.21875H7.79932C7.50285 7.21875 7.2577 7.31615 7.06385 7.51094C6.87001 7.70573 6.77309 7.95208 6.77309 8.25C6.77309 8.54792 6.87001 8.79427 7.06385 8.98906C7.2577 9.18385 7.50285 9.28125 7.79932 9.28125H9.16762V10.6562C9.16762 10.9542 9.26454 11.2005 9.45838 11.3953C9.65222 11.5901 9.89738 11.6875 10.1938 11.6875Z" fill="#0D57ED"/>
</svg>

